PathFileType	4	(X/Y/Z)	C:/Users/opensim2020/Desktop/walking_exp_matlab/subject06_walking20_straight_03.trc	
DataRate	CameraRate	NumFrames	NumMarkers	Units	OrigDataRate	OrigDataStartFrame	OrigNumFrames	
100.00	100.00	9	43	mm	100.00	1747	132	
Frame#	Time	LFHD			RFHD			LBHD			RBHD			C7			T10			CLAV			STRN			RBAK			LSHO			LUPA			LELB			LFRM			LWRA			LWRB			LFIN			RSHO			RUPA			RELB			RFRM			RWRA			RWRB			RFIN			LASI			RASI			LPSI			RPSI			LTHI			LKNE			LTIB			LANK			LHEE			LTOE			RTHI			RKNE			RTIB			RANK			RHEE			RTOE			*39			*40			*41			*42			
		X1	Y1	Z1	X2	Y2	Z2	X3	Y3	Z3	X4	Y4	Z4	X5	Y5	Z5	X6	Y6	Z6	X7	Y7	Z7	X8	Y8	Z8	X9	Y9	Z9	X10	Y10	Z10	X11	Y11	Z11	X12	Y12	Z12	X13	Y13	Z13	X14	Y14	Z14	X15	Y15	Z15	X16	Y16	Z16	X17	Y17	Z17	X18	Y18	Z18	X19	Y19	Z19	X20	Y20	Z20	X21	Y21	Z21	X22	Y22	Z22	X23	Y23	Z23	X24	Y24	Z24	X25	Y25	Z25	X26	Y26	Z26	X27	Y27	Z27	X28	Y28	Z28	X29	Y29	Z29	X30	Y30	Z30	X31	Y31	Z31	X32	Y32	Z32	X33	Y33	Z33	X34	Y34	Z34	X35	Y35	Z35	X36	Y36	Z36	X37	Y37	Z37	X38	Y38	Z38	X39	Y39	Z39	X40	Y40	Z40	X41	Y41	Z41	X42	Y42	Z42	X43	Y43	Z43	

67	0.660	-1056.85852	-65.28256	1625.39392	-925.82617	-73.96790	1611.23022	-1067.51257	-198.59290	1573.76025	-938.75446	-205.71399	1564.66956	-1009.98511	-208.17148	1417.46631	-1000.00433	-262.01788	1090.55896	-1005.59253	-102.46163	1332.64392	-1006.64618	-74.27155	1155.70593	-925.49713	-292.83615	1253.98621	-1170.14575	-153.79906	1363.19446	-1236.46948	-218.32118	1171.32324	-1245.13196	-266.14169	1069.33533	-1275.60498	-304.98224	926.35828	-1248.98059	-287.22714	792.63483	-1277.57642	-349.46432	816.46936	-1281.57275	-351.10095	724.42029	-845.54608	-149.49045	1373.18372	-744.72455	-198.14189	1186.13269	-721.18652	-186.27371	1069.70203	-705.47369	-121.18169	974.31354	-745.12616	0.23171	894.22784	-706.64038	-43.88036	862.59509	-705.34613	28.84761	823.63916	-1098.63562	-80.97858	926.82312	-879.68573	-102.60420	925.67804	-1091.53723	-240.84074	952.91852	-922.78699	-250.48900	958.80591	-1174.32056	-64.51838	624.87146	-1138.50720	3.90161	481.89056	-1133.75000	54.52096	231.57710	-1092.76807	112.62621	68.49704	-1046.55981	78.50814	42.01581	-1082.66577	257.57452	85.20480	-846.57562	-218.51633	603.12335	-870.41058	-249.44875	479.45728	-887.29034	-412.65958	259.60791	-940.39185	-511.97116	104.13940	-985.25995	-559.63318	98.51984	-942.09821	-380.78995	30.87007	-1003.66577	-168.31175	1663.93616									 
68	0.670	-1057.67126	-50.48503	1624.89502	-926.62885	-59.71459	1610.64270	-1068.76428	-183.89738	1573.33533	-940.03284	-191.30574	1564.08105	-1011.22894	-193.56721	1416.63599	-1000.83313	-246.14134	1089.53699	-1006.52368	-87.65337	1332.26807	-1007.25769	-58.70904	1155.42139	-926.83496	-277.85986	1252.98621	-1171.23523	-138.90340	1362.56531	-1237.69275	-203.67256	1171.07434	-1246.54224	-252.22868	1069.58264	-1277.21082	-292.76874	927.19067	-1251.08325	-276.45139	793.15582	-1279.35474	-338.47742	817.77667	-1283.44202	-341.53104	725.88696	-846.66168	-135.26071	1372.83972	-745.96674	-183.94518	1185.70984	-722.57983	-172.38252	1069.37598	-706.64404	-107.14328	974.15479	-745.57452	14.63551	894.75671	-707.77942	-29.58128	862.63025	-705.60071	43.42593	824.29559	-1099.08630	-63.80922	926.67737	-880.02130	-86.22266	924.99231	-1092.49475	-223.67233	951.98187	-923.94531	-233.84723	957.53760	-1174.03162	-46.70480	624.65375	-1138.14282	20.95162	481.53192	-1133.57532	70.14086	230.31889	-1091.94653	125.82964	66.72855	-1046.55005	90.93874	40.76381	-1080.44482	270.53668	82.82231	-846.43927	-201.50865	602.22241	-869.80933	-232.33305	478.42575	-886.17468	-401.79587	263.02448	-938.58209	-507.00107	111.29231	-983.06311	-554.79254	108.32584	-942.18396	-380.62445	30.86052	-1004.74268	-153.70097	1663.36414									 
69	0.680	-1058.48413	-35.77743	1624.55872	-927.48969	-45.36939	1610.29504	-1070.08521	-169.09233	1573.23389	-941.43146	-176.93431	1563.89063	-1012.57892	-178.98303	1416.09912	-1001.70642	-229.75302	1088.61560	-1007.58313	-72.75785	1332.18054	-1008.02246	-42.83456	1155.56458	-928.31085	-262.96295	1252.10486	-1172.41162	-123.80636	1362.33215	-1239.08704	-188.85234	1171.31238	-1248.00391	-237.84543	1070.09692	-1278.84729	-279.40167	928.09540	-1253.17542	-264.31485	793.82843	-1281.13672	-326.11603	819.16382	-1285.53491	-330.49622	727.39032	-847.92731	-120.98984	1372.79431	-747.23254	-169.79080	1185.66382	-724.12622	-158.71005	1069.34644	-707.71436	-93.74977	974.23328	-746.15826	28.41492	894.89410	-708.96277	-16.08676	862.48712	-706.29858	56.70823	824.21008	-1099.62891	-46.49183	926.85223	-880.64532	-69.19859	925.00739	-1093.49243	-206.43170	951.66815	-925.02234	-216.74738	956.72522	-1173.41211	-28.80938	624.80792	-1137.84521	38.08889	481.43045	-1132.80103	84.20319	229.05354	-1090.68677	136.62639	64.80725	-1045.63965	98.87904	41.87907	-1078.33032	281.28091	75.11473	-846.35919	-183.40538	601.31158	-868.85706	-213.60854	477.23096	-885.09717	-389.83514	267.01688	-936.97247	-500.82916	119.50240	-981.50916	-548.06726	119.28977	-942.17688	-380.11389	30.88710	-1005.90875	-139.01456	1663.26025									 
70	0.690	-1059.31030	-20.83269	1625.07166	-928.35187	-30.99096	1610.40588	-1071.53833	-154.19975	1573.60095	-942.99280	-162.67004	1564.21851	-1014.05042	-164.54338	1416.14929	-1002.70129	-213.34727	1088.10315	-1008.69781	-57.69167	1332.59436	-1008.86700	-26.88945	1156.16235	-929.86243	-247.88115	1251.58740	-1173.63574	-108.53652	1362.57007	-1240.83240	-173.75049	1172.02014	-1249.42065	-223.05707	1070.84180	-1280.59473	-265.03131	929.10345	-1255.06335	-250.84435	794.52545	-1282.96252	-312.33255	820.56775	-1287.68030	-317.79413	728.90784	-849.20795	-106.74363	1373.11023	-748.73389	-155.75018	1185.92322	-725.75781	-145.21040	1069.61145	-709.22571	-80.53645	974.08679	-746.96411	41.33282	894.38055	-710.06927	-3.44038	862.12073	-706.78424	69.54356	823.78918	-1100.22461	-29.29362	927.39618	-881.46973	-51.65845	925.33392	-1094.60510	-189.03647	951.98706	-925.94830	-199.37700	956.33038	-1172.60449	-11.29360	625.28387	-1138.15662	54.91462	481.61337	-1131.02625	97.31060	228.80856	-1090.35657	142.91142	63.82734	-1045.08765	102.62527	44.61201	-1075.83081	288.15067	60.89531	-846.29706	-164.11734	600.35327	-867.83527	-193.01749	475.86121	-884.20917	-376.12854	271.64365	-935.64673	-492.85852	128.75620	-980.24207	-539.06299	131.63124	-942.42987	-379.58517	31.00986	-1007.15436	-124.37533	1663.48987									 
71	0.700	-1060.10913	-5.85582	1626.09204	-929.18860	-16.72215	1611.30078	-1073.11499	-139.23994	1574.62207	-944.53802	-148.44283	1564.97864	-1015.60492	-149.79710	1416.72046	-1003.44348	-197.03542	1088.21790	-1009.80988	-42.71746	1333.63806	-1009.80695	-11.13672	1157.37280	-931.85406	-232.98273	1251.50830	-1174.95300	-93.17357	1363.34692	-1242.11145	-158.24640	1172.91467	-1251.08093	-207.50262	1071.74634	-1282.36963	-249.53821	930.06976	-1256.69690	-235.80161	795.39392	-1284.72327	-296.99768	821.72382	-1289.85645	-303.17233	730.32532	-850.42725	-92.49779	1373.94617	-750.21301	-142.08327	1186.59692	-727.37524	-131.81998	1070.12488	-710.60291	-67.84750	974.11554	-747.61023	53.76039	893.57648	-711.12457	8.43448	861.54578	-707.72485	80.82436	822.44373	-1100.85876	-12.22306	928.59204	-882.44391	-33.95328	926.11041	-1095.44434	-171.96394	953.24261	-926.64569	-181.77846	956.45502	-1171.74036	5.92914	626.57568	-1138.33752	71.78517	483.08231	-1131.06042	109.36999	229.51389	-1090.66504	145.48895	62.66997	-1045.89746	104.43226	45.52160	-1072.61194	290.65826	51.23090	-846.13660	-143.72189	599.24683	-866.62421	-170.43951	474.15338	-883.55640	-359.97653	276.57687	-934.81616	-482.39218	138.92409	-979.59686	-526.91406	145.18274	-942.81793	-378.36545	31.28102	-1008.40289	-109.73718	1664.43066									 
72	0.710	-1060.83569	8.86954	1627.55237	-930.07367	-2.52130	1612.73889	-1074.63257	-124.21060	1576.20374	-946.16663	-134.09944	1566.41504	-1017.13538	-135.08272	1417.94897	-1004.00140	-180.85118	1089.07312	-1010.91217	-27.83097	1335.19043	-1010.79089	4.55137	1159.08862	-933.80084	-217.66452	1251.85999	-1176.23230	-77.79443	1364.54724	-1243.67871	-142.35149	1174.16809	-1252.79419	-191.42073	1072.85876	-1284.27893	-232.94888	931.07324	-1258.04504	-219.46425	796.34882	-1286.38440	-279.95709	822.52386	-1292.00940	-286.76410	731.60846	-851.53729	-78.16162	1375.28491	-751.91339	-128.31795	1187.58325	-729.07574	-118.60515	1070.99719	-712.11658	-55.61980	974.20673	-748.44910	65.34982	892.26691	-712.19238	19.41686	860.78381	-708.29810	91.48545	820.84491	-1101.80164	4.75305	930.55682	-883.67712	-16.41808	927.07062	-1095.73010	-155.23395	955.40173	-926.72070	-164.64325	957.20630	-1170.85278	23.00963	629.17987	-1138.11267	88.96435	485.74435	-1131.17078	118.65653	230.79536	-1090.63000	148.79012	62.71344	-1046.56799	106.74202	46.95874	-1071.80823	293.23260	46.53405	-845.67902	-122.11140	598.14618	-865.01312	-145.81953	472.37085	-883.09369	-340.79752	281.52722	-934.29504	-469.21362	150.24937	-979.76788	-511.60989	160.28020	-943.21228	-377.68622	31.78300	-1009.65076	-95.12298	1665.99573									 
73	0.720	-1061.58215	23.81226	1629.35425	-930.86548	11.59338	1614.45911	-1076.17188	-109.25144	1578.17505	-947.78687	-119.85026	1568.29834	-1018.54089	-120.12882	1419.64026	-1004.61578	-164.86049	1090.27808	-1011.96014	-12.93441	1337.15173	-1011.78772	20.38174	1161.27954	-935.53485	-202.26340	1252.73901	-1177.39587	-62.27834	1366.20251	-1245.27173	-125.98139	1175.70508	-1254.67346	-174.49033	1074.13855	-1286.22180	-215.19269	932.13220	-1259.20581	-201.89969	797.49823	-1288.81860	-262.02216	823.75836	-1294.01880	-268.30566	732.68463	-852.58881	-63.66823	1377.04468	-753.81207	-114.87323	1189.21240	-730.95398	-105.29330	1072.31226	-713.74432	-43.67255	974.46033	-749.48132	76.15747	890.55939	-713.34253	29.59492	859.85657	-709.32898	100.77132	818.62903	-1102.97168	21.42587	933.28839	-885.18640	1.03855	928.43280	-1095.42358	-138.93250	957.97400	-926.60791	-147.17685	957.80371	-1170.64319	40.39697	633.11011	-1137.59460	105.74938	488.84106	-1131.53760	126.51225	232.64249	-1090.78418	152.03494	63.76205	-1047.31409	109.07513	48.96582	-1072.73621	295.54813	43.53519	-844.96899	-99.19360	596.94543	-863.03967	-119.51351	470.48352	-882.54651	-319.23007	286.73291	-933.67596	-453.51111	162.42639	-980.20282	-493.02899	175.97427	-943.86304	-376.53799	32.98321	-1010.93427	-80.42331	1667.87903									 
74	0.730	-1062.28076	38.67281	1631.20447	-931.67755	25.83104	1616.22192	-1077.71313	-94.30806	1580.32861	-949.38885	-105.57240	1570.37512	-1019.79462	-105.37900	1421.41772	-1005.00897	-149.08748	1091.95032	-1012.89227	1.92427	1339.20813	-1012.68842	36.03102	1163.52722	-936.91418	-186.83401	1253.97375	-1178.37439	-46.83795	1368.18005	-1246.85266	-109.15714	1177.47876	-1256.58215	-156.91727	1075.61804	-1288.19238	-196.28761	933.24139	-1259.91895	-182.78862	798.80566	-1291.09082	-242.22874	824.53375	-1295.93359	-248.20148	733.47632	-853.71320	-49.16049	1379.07849	-755.66168	-101.27839	1191.18311	-733.10059	-92.03590	1073.98755	-715.51831	-32.14151	974.82697	-750.65289	86.14838	888.42188	-714.56720	38.97506	858.75562	-710.27789	109.27235	816.05029	-1104.45532	37.90712	936.68530	-887.13666	18.45479	930.00275	-1094.64258	-123.02053	960.64929	-926.40161	-129.59752	958.37408	-1171.39221	57.35041	637.28088	-1137.26636	120.50111	491.44162	-1132.62842	135.14389	234.47345	-1090.62341	153.91811	64.02235	-1047.44141	110.63761	49.95787	-1073.65759	297.14801	40.79187	-843.87213	-75.53069	595.65918	-860.97900	-92.25847	468.70905	-881.79266	-296.09750	292.36826	-933.21619	-435.24802	174.63826	-979.93036	-472.56668	191.21385	-943.73480	-371.00021	36.63312	-1012.25964	-65.67743	1669.95947									 
75	0.740	-1063.03284	53.56517	1632.69800	-932.57965	40.04793	1617.97400	-1079.16321	-79.48985	1582.26111	-950.87762	-91.51474	1572.38269	-1020.87714	-90.56383	1422.90662	-1005.32971	-133.40298	1093.70105	-1013.70728	16.83921	1341.18213	-1013.43774	51.80443	1165.75879	-938.00482	-171.54584	1255.34583	-1179.16235	-31.46228	1370.38660	-1248.38196	-91.99480	1179.34631	-1258.63062	-138.64281	1077.08472	-1290.23535	-176.34584	934.26062	-1260.71179	-162.58353	800.15845	-1293.68323	-221.21704	825.20172	-1297.73230	-226.51692	733.87463	-854.86517	-34.63822	1381.18445	-757.37860	-87.65237	1193.37817	-735.40198	-78.74449	1075.85864	-717.33832	-20.76535	975.26550	-751.69366	95.62277	885.96466	-715.91962	47.58990	857.51184	-711.06793	116.93286	813.14496	-1106.17554	54.04467	940.22192	-889.02747	35.24753	931.43378	-1093.71838	-107.33841	963.10742	-925.72656	-113.04980	959.12292	-1172.64258	73.07326	640.73138	-1137.41162	133.06470	493.02121	-1133.19812	143.33781	235.15178	-1089.97131	155.75694	64.08715	-1047.74194	112.12511	50.56622	-1072.67798	298.62973	38.98836	-842.96179	-51.77374	594.50684	-858.92480	-64.98644	467.26065	-880.38605	-271.21826	298.01395	-932.49249	-414.67014	186.44864	-979.25385	-450.09454	206.12216	-943.49487	-363.19894	41.25182	-1013.60059	-50.96705	1671.83984									 
